<svg viewBox="0 0 123.7 33.312" height="33.312" width="123.7" xmlns="http://www.w3.org/2000/svg" id="Miva_Logo">
  <rect fill="#fff" transform="translate(48.866 0.039)" height="33.273" width="6.261" id="Rectangle_2"></rect>
  <path fill="#fff" transform="translate(-238.767)" d="M331.675,6.123V0H331.5a11.8,11.8,0,0,0-10.986,7.737l-6.025,16.4-6.064-16.42a11.7,11.7,0,0,0-4.351-5.591A11.6,11.6,0,0,0,297.5.039h-.2V6.123h.177a5.706,5.706,0,0,1,5.178,3.7L310.274,30.4a4.424,4.424,0,0,0,4.194,2.914h0a4.424,4.424,0,0,0,4.194-2.914l7.58-20.554A5.81,5.81,0,0,1,331.5,6.123Z" id="Path_1"></path>
  <path fill="#fff" transform="translate(0 -0.161)" d="M33.824,4,22.031,20.262,10.139,3.98A9.214,9.214,0,0,0,2.737.2H0V33.473H5.926V8.725L17.5,24.5a5.477,5.477,0,0,0,4.45,2.284,5.422,5.422,0,0,0,4.43-2.264L37.9,8.725V33.473h6.143V.2h-2.8A9.215,9.215,0,0,0,33.824,4Z" id="Path_2"></path>
  <path fill="#fff" transform="translate(-377.306 -0.161)" d="M501.006,9.2a9.32,9.32,0,0,0-9.372-9H473.62V6.225h18.014a3.265,3.265,0,0,1,3.229,3.268v.039a2.983,2.983,0,0,1-2.973,2.973H480.136A10.348,10.348,0,0,0,469.8,22.841v.394a10.234,10.234,0,0,0,10.218,10.218h10.71a10.285,10.285,0,0,0,10.277-10.277V9.394h0ZM475.943,23.255v-.394a4.214,4.214,0,0,1,4.194-4.213h11.222a7.517,7.517,0,0,0,3.485-.788v5.316a4.151,4.151,0,0,1-4.134,4.154h-10.73A4.075,4.075,0,0,1,475.943,23.255Z" id="Path_3"></path>
</svg>
