<svg width="138" height="27" viewBox="0 0 138 27" fill="none" xmlns="http://www.w3.org/2000/svg">
<path d="M58.7196 9.34477C60.0263 9.34477 61.1024 8.26798 61.1024 7.03735C61.1024 5.76827 60.0263 4.69147 58.7196 4.69147C57.5283 4.69147 56.4522 5.76827 56.4522 7.03735C56.4137 8.30643 57.4898 9.34477 58.7196 9.34477Z" fill="#F0612D"/>
<path d="M93.6139 10.9597C92.0383 10.9597 90.578 11.4596 89.2714 13.5362L85.5053 19.4967V15.0359L88.2722 11.6903C90.1169 9.49839 92.3842 7.30645 92.3842 4.46078C92.3842 1.69202 90.4243 0 87.3884 0C83.9682 0 82.1235 2.03812 82.1235 5.34525V13.267L75.5906 21.6886C74.9373 22.4577 74.1687 23.1499 73.7844 23.1499C73.3232 23.1499 72.8236 22.8038 72.8236 21.9194V14.6129H77.6657V11.3058H72.8236V6.11435H69.2881V11.7288L61.2564 22.3808C61.0643 22.7269 60.9874 22.7654 60.8337 22.7654C60.6031 22.7654 60.5262 22.6116 60.5262 22.3039V11.3058H57.0292V12.5748L50.304 20.8042V15.2282C50.304 12.6517 49.0743 10.9597 46.538 10.9597C44.9624 10.9597 43.4252 11.4596 42.1186 13.5362L38.6599 19.1891V15.2282C38.6599 12.6517 37.4302 10.9597 34.8939 10.9597C33.3183 10.9597 31.8579 11.4596 30.5513 13.5362L26.9774 19.266V11.3058H23.4419V12.5363L17.8312 19.0737C17.7159 18.8045 17.6391 18.5353 17.5238 18.2661L14.5263 11.2673H10.8371V12.4594L0 26.2263H4.03508L12.3743 15.4205L14.142 19.5351C14.5647 20.6503 15.1796 22.0732 13.9883 22.9961C12.7585 23.9575 10.4912 22.9961 9.79949 21.3041L7.80116 23.7652C8.64661 25.5341 10.9139 26.8031 13.2581 26.6493C14.8337 26.534 16.1403 25.9956 17.0626 25.1496L17.1011 25.1111C17.3316 24.9189 17.5238 24.6881 17.6775 24.4574L23.4035 17.7278V26.2263H26.7084H26.7468L33.3567 15.382C33.741 14.7283 33.9716 14.4591 34.3943 14.4591C34.7786 14.4591 35.0091 14.6129 35.0091 15.4974V26.2648H38.3141L45.0392 15.382C45.4235 14.7283 45.6541 14.4591 46.0768 14.4591C46.4995 14.4591 46.6917 14.6129 46.6917 15.4974V26.2648H49.9966L56.9907 17.8047V23.073C56.9907 24.8804 57.913 26.534 60.2957 26.534C61.8328 26.534 63.0626 26.111 64.1386 24.3805L69.2113 17.6124V22.6116C69.2113 24.6112 70.4026 26.6109 73.5154 26.6109C75.3984 26.6109 77.0893 25.6495 78.5112 23.496L79.0876 22.65L82.0851 18.766V26.2648H85.3516L92.192 15.382C92.6148 14.7283 92.8069 14.4591 93.2296 14.4591C93.6139 14.4591 93.8445 14.6129 93.8445 15.4974V26.2648H97.38V15.2282C97.38 12.6517 96.1503 10.9597 93.6139 10.9597ZM85.4669 5.11452C85.4669 3.99932 86.1202 3.19177 87.1962 3.19177C87.9264 3.19177 88.7334 3.61477 88.7334 4.76842C88.7334 5.42216 88.4644 6.26817 87.5421 7.46027L85.4669 10.1521V5.11452Z" fill="#F0612D"/>
<path d="M101.876 21.8808C100.684 21.8808 99.6084 22.9191 99.6084 24.2267C99.6084 25.4573 100.646 26.5341 101.876 26.5341C103.183 26.5341 104.259 25.4958 104.259 24.2267C104.259 22.9191 103.183 21.8808 101.876 21.8808Z" fill="#F0612D"/>
<path d="M128.815 9.42168C130.121 9.42168 131.198 8.38334 131.198 7.11425C131.198 5.84517 130.16 4.76837 128.815 4.76837C127.623 4.76837 126.547 5.80671 126.547 7.11425C126.547 8.38334 127.623 9.42168 128.815 9.42168Z" fill="#F0612D"/>
<path d="M134.042 18.3816L131.429 22.4579C131.236 22.804 131.16 22.804 131.006 22.804C130.775 22.804 130.698 22.6501 130.698 22.3425V11.4982H127.24V12.4211L120.937 22.4194C120.745 22.7655 120.668 22.7655 120.515 22.7655C120.284 22.7655 120.207 22.6117 120.207 22.3041V11.3828H116.941L116.902 12.6134C115.826 11.7289 114.481 11.1521 112.867 11.1521C108.448 11.1521 105.22 14.4977 105.22 18.8431C105.22 23.3808 108.371 26.5341 111.599 26.5341C114.212 26.5341 115.442 24.8421 116.172 23.5346C116.364 23.227 116.518 22.9193 116.672 22.6117V22.8424C116.672 24.6114 117.863 26.4956 119.938 26.4956C121.475 26.4956 122.667 26.0726 123.743 24.3422L127.124 18.9585V23.1501C127.124 24.919 128.047 26.5726 130.391 26.5726C131.928 26.5726 133.119 26.1496 134.195 24.4191L138 18.4201H134.042V18.3816ZM114.058 21.458C113.367 22.6501 112.713 23.3808 111.983 23.3808C110.638 23.3808 108.678 22.1502 108.678 18.92C108.678 16.0743 110.677 14.3054 112.906 14.3054C115.135 14.3054 116.403 15.8436 116.749 16.6127C116.287 17.4972 115.442 19.1123 114.058 21.458Z" fill="#F0612D"/>
</svg>
